<svg xmlns="http://www.w3.org/2000/svg" xmlns:xlink="http://www.w3.org/1999/xlink" width="100px" height="100px" viewBox="0 0 100 100" version="1.1">
<g id="surface1">
<path style=" stroke:none;fill-rule:nonzero;fill:#ffffff;fill-opacity:1;" d="M 42.246094 52.378906 C 40.058594 48.558594 42.632812 46.578125 43.347656 45.3125 C 44.695312 43.007812 44.859375 40.230469 44.390625 37.617188 C 43.917969 35.003906 42.082031 28.183594 41.9375 27.304688 L 30.996094 16.363281 C 30.035156 15.402344 29.730469 14.054688 30.199219 12.871094 C 31.464844 9.378906 30.585938 5.335938 27.667969 2.558594 C 24.09375 -0.6875 18.621094 -0.847656 14.96875 2.316406 C 12.90625 3.988281 11.804688 6.359375 11.558594 8.746094 C 11.394531 10.257812 10.292969 11.441406 8.78125 11.523438 C 6.390625 11.769531 4.023438 12.871094 2.269531 14.851562 C -0.835938 18.484375 -0.753906 24.039062 2.511719 27.53125 C 5.207031 30.472656 9.332031 31.347656 12.824219 30.0625 C 14.007812 29.59375 15.4375 29.980469 16.316406 30.859375 L 44 58.566406 C 43.675781 56.421875 43.121094 54.359375 42.246094 52.378906 Z M 42.246094 52.378906 "/>
<path style=" stroke:none;fill-rule:nonzero;fill:#ffffff;fill-opacity:1;" d="M 97.472656 72.367188 C 94.777344 69.425781 90.65625 68.550781 87.164062 69.835938 C 85.980469 70.304688 84.550781 69.917969 83.671875 69.039062 L 47.960938 33.328125 C 48.042969 34.207031 49.941406 41.027344 50.410156 43.640625 C 50.882812 46.253906 50.738281 49.113281 49.371094 51.335938 C 48.65625 52.519531 47.554688 53.644531 47.390625 55.074219 C 47.226562 56.257812 49.699219 62.445312 50.003906 64.667969 L 69.054688 83.636719 C 70.011719 84.597656 70.320312 85.945312 69.847656 87.128906 C 68.582031 90.621094 69.460938 94.664062 72.382812 97.441406 C 75.953125 100.6875 81.425781 100.847656 85.082031 97.683594 C 87.0625 95.949219 88.183594 93.640625 88.410156 91.171875 C 88.570312 89.660156 89.675781 88.476562 91.183594 88.394531 C 93.574219 88.148438 95.941406 87.046875 97.699219 85.066406 C 100.882812 81.410156 100.71875 75.941406 97.472656 72.367188 Z M 97.472656 72.367188 "/>
<path style=" stroke:none;fill-rule:nonzero;fill:#ffffff;fill-opacity:1;" d="M 37.652344 65.464844 C 37.324219 64.425781 36.222656 63.792969 35.199219 64.117188 L 23.378906 67.445312 C 22.339844 67.773438 21.707031 68.875 22.03125 69.898438 C 22.277344 70.773438 23.257812 71.550781 24.480469 71.242188 L 36.222656 67.917969 C 37.324219 67.609375 37.894531 66.488281 37.652344 65.464844 Z M 37.652344 65.464844 "/>
<path style=" stroke:none;fill-rule:nonzero;fill:#ffffff;fill-opacity:1;" d="M 45.59375 73.386719 C 44.550781 73.0625 43.449219 73.714844 43.144531 74.734375 L 39.796875 86.476562 C 39.46875 87.515625 40.121094 88.621094 41.140625 88.925781 C 42.429688 89.273438 43.367188 88.457031 43.59375 87.578125 L 46.921875 75.839844 C 47.246094 74.734375 46.613281 73.714844 45.59375 73.386719 Z M 45.59375 73.386719 "/>
<path style=" stroke:none;fill-rule:nonzero;fill:#ffffff;fill-opacity:1;" d="M 41.0625 70.773438 C 40.265625 69.976562 39 69.976562 38.285156 70.773438 L 31.21875 77.757812 C 30.421875 78.554688 30.421875 79.820312 31.21875 80.535156 C 32.320312 81.515625 33.667969 80.921875 34.078125 80.535156 L 41.0625 73.550781 C 41.777344 72.753906 41.777344 71.570312 41.0625 70.773438 Z M 41.0625 70.773438 "/>
<path style=" stroke:none;fill-rule:nonzero;fill:#ffffff;fill-opacity:1;" d="M 54.230469 31.265625 C 54.476562 32.144531 55.433594 32.960938 56.679688 32.613281 L 68.421875 29.367188 C 69.460938 29.042969 70.09375 27.9375 69.765625 26.917969 C 69.441406 25.875 68.339844 25.242188 67.316406 25.570312 L 55.578125 28.816406 C 54.554688 29.125 53.921875 30.226562 54.230469 31.265625 Z M 54.230469 31.265625 "/>
<path style=" stroke:none;fill-rule:nonzero;fill:#ffffff;fill-opacity:1;" d="M 46.308594 23.324219 C 47.574219 23.691406 48.535156 22.855469 48.757812 21.976562 L 52.085938 10.238281 C 52.414062 9.195312 51.757812 8.09375 50.738281 7.789062 C 49.699219 7.460938 48.59375 8.113281 48.289062 9.132812 L 44.960938 20.875 C 44.632812 21.976562 45.265625 23.019531 46.308594 23.324219 Z M 46.308594 23.324219 "/>
<path style=" stroke:none;fill-rule:nonzero;fill:#ffffff;fill-opacity:1;" d="M 50.820312 25.957031 C 51.207031 26.347656 52.433594 26.960938 53.679688 25.957031 L 60.660156 18.976562 C 61.457031 18.179688 61.457031 16.914062 60.660156 16.199219 C 59.863281 15.402344 58.597656 15.402344 57.882812 16.199219 L 50.820312 23.183594 C 50.023438 23.957031 50.023438 25.242188 50.820312 25.957031 Z M 50.820312 25.957031 "/>
</g>
</svg>