<svg xmlns="http://www.w3.org/2000/svg" xmlns:xlink="http://www.w3.org/1999/xlink" width="64px" height="64px" viewBox="0 0 64 64" version="1.1">
<g id="surface1">
<path style="fill:#ffffff;stroke-width:2;stroke-linecap:round;stroke-linejoin:round;stroke:#ffffff;stroke-opacity:1;stroke-miterlimit:4;" d="M 12 3 L 12 7.000488 M 12 7.000488 L 12 16.999512 M 12 7.000488 L 9 4.000488 M 12 7.000488 L 15 4.000488 M 12 16.999512 L 12 21 M 12 16.999512 L 9 19.999512 M 12 16.999512 L 15 19.999512 M 4.205566 7.5 L 7.669922 9.499512 M 7.669922 9.499512 L 16.330078 14.500488 M 7.669922 9.499512 L 3.572754 10.598145 M 7.669922 9.499512 L 6.572754 5.402344 M 16.330078 14.500488 L 19.794434 16.5 M 16.330078 14.500488 L 17.428711 18.597656 M 16.330078 14.500488 L 20.428711 13.401855 M 4.207031 16.5 L 7.671387 14.500488 M 7.671387 14.500488 L 16.331543 9.499512 M 7.671387 14.500488 L 3.572754 13.401855 M 7.671387 14.500488 L 6.572754 18.597656 M 16.331543 9.499512 L 19.795898 7.5 M 16.331543 9.499512 L 17.428711 5.402344 M 16.331543 9.499512 L 20.428711 10.598145 " transform="matrix(2.666667,0,0,2.666667,0,0)"/>
</g>
</svg>