<svg xmlns="http://www.w3.org/2000/svg" xmlns:xlink="http://www.w3.org/1999/xlink" width="64px" height="64px" viewBox="0 0 64 64" version="1.1">
<g id="surface1">
<path style=" stroke:none;fill-rule:nonzero;fill:#ffffff;fill-opacity:1;" d="M 54.550781 3.703125 L 52.289062 8.980469 L 46.21875 9.71875 L 51.488281 12.925781 L 51.660156 14.609375 C 45.992188 11.34375 37.804688 9.421875 26.847656 10.289062 L 24.324219 9.871094 L 21.308594 5.070312 L 21.371094 10.042969 L 15.21875 12.097656 L 22.101562 12.667969 L 23.082031 16.890625 L 25.21875 12.167969 L 27.457031 11.824219 C 52.957031 14.578125 62.140625 37.417969 37.191406 37.777344 L 37.84375 33.078125 L 42.4375 27.613281 L 36.019531 24.492188 L 32.242188 18.433594 L 27.289062 23.574219 L 26.773438 23.703125 C -1.050781 20.382812 -3.964844 38.0625 12.355469 47.015625 L 10.863281 48.601562 L 4.980469 46.8125 L 9.109375 51.738281 L 7.21875 57.054688 L 11.765625 53.160156 L 17.644531 55.421875 L 13.847656 49.9375 L 14.433594 48.058594 C 22.238281 51.640625 33.664062 53.328125 48.246094 50.648438 C 18.117188 54.820312 2.730469 33.40625 20.835938 26.1875 L 23.714844 31.59375 L 23.214844 38.714844 L 30.242188 37.46875 L 32.648438 38.445312 C 59.929688 51.273438 69.832031 27.957031 54.128906 16.226562 L 55.925781 13.449219 L 61.734375 11.386719 L 56.496094 9.535156 Z M 4.316406 9.878906 L 4.921875 13.140625 L 2.488281 15.890625 L 5.890625 15.484375 L 8.085938 18.402344 L 8.171875 14.71875 L 11.269531 12.480469 L 7.117188 12.265625 Z M 49.136719 47.191406 L 50.917969 53.648438 L 46.996094 58.78125 L 53.195312 57.195312 L 57.40625 61.480469 L 57.089844 55.054688 L 61.492188 51.257812 L 55.042969 51.453125 Z M 49.136719 47.191406 "/>
</g>
</svg>