<svg xmlns="http://www.w3.org/2000/svg" xmlns:xlink="http://www.w3.org/1999/xlink" width="64px" height="64px" viewBox="0 0 64 64" version="1.1">
<g id="surface1">
<path style=" stroke:none;fill-rule:nonzero;fill:#ffffff;fill-opacity:1;" d="M 19.515625 4.308594 L 14.898438 4.382812 L 16.148438 8.007812 L 19.554688 7.71875 Z M 2.25 4.714844 L 2.25 61.75 L 39.460938 61.75 L 38 56 L 30 48 L 24 28 L 12.992188 18 L 12 8 Z M 27.382812 12.324219 L 20 14 L 22.046875 17.792969 L 24.253906 18.46875 L 24.101562 20.925781 L 30.582031 18 Z M 31.714844 19.945312 L 29.273438 22.578125 L 32.710938 24.152344 L 34.316406 21.554688 Z M 38.078125 31.195312 L 33.78125 34.324219 L 32.3125 41.65625 L 44.878906 44.527344 L 44.359375 32.25 Z M 51.515625 38.992188 L 48.902344 39.425781 L 46.90625 41.929688 L 47.515625 44.585938 L 52.621094 42.640625 Z M 46.0625 50.992188 L 40.523438 51.726562 L 41.378906 55.402344 L 45.988281 55.230469 Z M 50.757812 58.492188 L 46.746094 59.164062 L 42.515625 61.75 L 52.453125 61.75 Z M 50.757812 58.492188 "/>
</g>
</svg>