<svg xmlns="http://www.w3.org/2000/svg" xmlns:xlink="http://www.w3.org/1999/xlink" width="64px" height="64px" viewBox="0 0 64 64" version="1.1">
<g id="surface1">
<path style=" stroke:none;fill-rule:nonzero;fill:#ffffff;fill-opacity:1;" d="M 6.382812 3.035156 L 6.382812 4.445312 C 6.382812 17.046875 7.546875 28.089844 11.292969 37.515625 C 15.039062 46.941406 21.414062 54.710938 31.605469 60.59375 L 32.191406 60.933594 L 32.777344 60.59375 C 42.738281 54.84375 49.121094 47.097656 52.945312 37.652344 C 56.769531 28.207031 58.066406 17.089844 58.066406 4.445312 L 58.066406 3.050781 L 56.691406 3.296875 C 40.730469 6.148438 24.65625 6.484375 7.765625 3.296875 Z M 55.710938 5.816406 C 55.617188 17.714844 54.296875 28.089844 50.78125 36.777344 C 47.207031 45.613281 41.398438 52.75 32.191406 58.222656 C 22.753906 52.621094 16.964844 45.464844 13.460938 36.652344 C 10.019531 28 8.820312 17.699219 8.734375 5.839844 C 24.917969 8.71875 40.40625 8.410156 55.710938 5.816406 Z M 35.945312 11.890625 C 24.808594 15.214844 30.898438 23.269531 28.0625 27.570312 C 25.09375 32.074219 18.972656 31.214844 20.980469 19.507812 C 12.113281 29.640625 20.660156 47.058594 27.835938 51.574219 C 25.820312 49.722656 24.492188 46.570312 24.492188 42.992188 C 24.492188 41.957031 24.605469 40.957031 24.8125 40.015625 C 25.722656 42.496094 27.84375 44.238281 30.320312 44.238281 C 33.625 44.238281 36.300781 41.140625 36.300781 37.316406 C 36.300781 36.050781 36.007812 34.863281 35.492188 33.839844 C 37.894531 35.5625 39.535156 39.015625 39.535156 42.992188 C 39.535156 46.109375 38.527344 48.90625 36.933594 50.796875 C 43.46875 46.796875 49.371094 36.804688 43.5 24.910156 C 40.878906 38.390625 29.988281 19.167969 35.945312 11.890625 Z M 35.945312 11.890625 "/>
</g>
</svg>