<svg xmlns="http://www.w3.org/2000/svg" xmlns:xlink="http://www.w3.org/1999/xlink" width="64px" height="64px" viewBox="0 0 64 64" version="1.1">
<g id="surface1">
<path style=" stroke:none;fill-rule:nonzero;fill:#ffffff;fill-opacity:1;" d="M 63.710938 43.210938 C 59.285156 35.890625 63.1875 42.347656 46.863281 15.351562 C 45.191406 21.695312 36.488281 30.082031 33.988281 30.964844 L 33.988281 35.472656 C 33.988281 36.574219 33.097656 37.464844 32 37.464844 C 30.902344 37.464844 30.011719 36.574219 30.011719 35.472656 L 30.011719 30.964844 C 27.492188 30.074219 18.804688 21.675781 17.136719 15.351562 C 1.910156 40.53125 5.070312 35.304688 0.289062 43.210938 C -0.289062 44.167969 0.03125 45.410156 0.996094 45.964844 L 9.671875 50.976562 C 10.621094 51.523438 11.839844 51.203125 12.390625 50.246094 C 16.457031 43.203125 15.046875 45.648438 16.917969 42.410156 L 16.917969 52.992188 C 16.917969 54.003906 17.667969 54.835938 18.644531 54.964844 L 18.644531 59.195312 C 18.644531 60.292969 19.535156 61.183594 20.632812 61.183594 L 43.367188 61.183594 C 44.464844 61.183594 45.355469 60.292969 45.355469 59.195312 L 45.355469 54.964844 C 46.332031 54.835938 47.085938 54.003906 47.085938 52.992188 L 47.085938 42.410156 C 48.695312 45.203125 48.117188 44.199219 51.609375 50.246094 C 52.160156 51.203125 53.378906 51.523438 54.328125 50.976562 L 63.003906 45.964844 C 63.972656 45.410156 64.289062 44.164062 63.710938 43.210938 Z M 9.941406 46.535156 L 4.742188 43.535156 L 5.675781 41.992188 L 10.839844 44.972656 Z M 41.375 57.203125 L 22.625 57.203125 L 22.625 54.984375 L 41.375 54.984375 Z M 54.058594 46.535156 L 53.160156 44.972656 L 58.324219 41.992188 L 59.257812 43.535156 Z M 54.058594 46.535156 "/>
<path style=" stroke:none;fill-rule:nonzero;fill:#ffffff;fill-opacity:1;" d="M 32 2.816406 C 22.851562 2.816406 18.875 9.65625 21.460938 15.722656 C 23.691406 20.941406 30.433594 26.625 30.71875 26.863281 C 31.460938 27.484375 32.542969 27.480469 33.28125 26.863281 C 33.566406 26.625 40.308594 20.941406 42.535156 15.722656 C 42.535156 15.722656 42.535156 15.722656 42.539062 15.722656 C 45.121094 9.664062 41.140625 2.816406 32 2.816406 Z M 31.996094 22.296875 C 29.75 19.496094 28.554688 16.941406 28.554688 15.738281 C 28.554688 13.003906 30.414062 12.035156 32.003906 12.035156 C 33.589844 12.035156 35.445312 13.003906 35.445312 15.738281 C 35.445312 17.277344 33.84375 19.972656 31.996094 22.296875 Z M 31.996094 22.296875 "/>
</g>
</svg>