<svg xmlns="http://www.w3.org/2000/svg" xmlns:xlink="http://www.w3.org/1999/xlink" width="64px" height="64px" viewBox="0 0 64 64" version="1.1">
<g id="surface1">
<path style=" stroke:none;fill-rule:nonzero;fill:#ffffff;fill-opacity:1;" d="M 28 3.378906 L 29.753906 17.195312 L 31.605469 4.316406 Z M 42.089844 6.019531 L 34.390625 17.566406 L 45.441406 8.75 Z M 15.644531 8.625 L 15.644531 12.351562 L 25.328125 17.566406 Z M 39.875 17.886719 C 45.601562 31.921875 43.527344 48 39.875 61.625 L 61.625 61.625 L 61.625 17.886719 Z M 30.050781 19.320312 C 29.980469 19.316406 29.90625 19.320312 29.835938 19.320312 C 28.269531 19.371094 26.527344 20.167969 25.097656 21.480469 C 23.128906 23.296875 22.117188 25.761719 22.578125 27.644531 C 16.953125 29.1875 13.003906 35.476562 12.371094 40.414062 C 11.878906 45.0625 14.289062 48.09375 12.441406 51.09375 L 5.097656 55.941406 L 2.539062 57.191406 L 6.917969 62.023438 L 8.878906 62.023438 L 6.71875 58.003906 L 15.832031 53.179688 C 17.667969 52.105469 17.839844 50.214844 18.242188 48.042969 C 20.261719 49.527344 22.4375 50.945312 24.1875 52.105469 C 23.390625 55.566406 19.367188 58.710938 16.871094 62.023438 L 26.601562 62.023438 L 26.238281 61.371094 C 26.238281 61.371094 21.359375 60.519531 20.765625 60.433594 C 20.746094 60.4375 20.730469 60.4375 20.714844 60.433594 C 20.675781 60.421875 20.707031 60.425781 20.765625 60.433594 C 21.785156 60.375 28.90625 53.941406 28.707031 52.367188 C 27.019531 49.476562 24.453125 46.761719 21.835938 44.082031 C 22.066406 40.898438 22.125 37.492188 26.929688 34.632812 L 40.683594 34.0625 C 40.566406 31.265625 40.117188 26.585938 39.390625 25.8125 C 38.179688 26.753906 38.03125 29.667969 37.9375 31.890625 L 28.003906 31.605469 C 26.949219 31.527344 26.136719 30.625 25.363281 30.003906 C 27.0625 30.195312 29.113281 29.386719 30.765625 27.875 C 33.347656 25.5 34.175781 22.140625 32.609375 20.375 C 32.011719 19.699219 31.113281 19.332031 30.050781 19.320312 Z M 30.050781 19.320312 "/>
</g>
</svg>