<svg xmlns="http://www.w3.org/2000/svg" xmlns:xlink="http://www.w3.org/1999/xlink" width="64px" height="64px" viewBox="0 0 64 64" version="1.1">
<g id="surface1">
<path style=" stroke:none;fill-rule:nonzero;fill:#ffffff;fill-opacity:1;" d="M 31.621094 29.097656 C 29.988281 42.265625 21.636719 44.609375 21.636719 53.761719 C 21.636719 59.414062 26.378906 64 32 64 C 37.621094 64 42.363281 59.410156 42.363281 53.761719 C 42.363281 44.609375 34.007812 42.265625 32.375 29.097656 C 32.324219 28.703125 31.671875 28.703125 31.621094 29.097656 Z M 12.425781 0.296875 C 10.789062 13.464844 2.4375 15.804688 2.4375 24.964844 C 2.4375 30.609375 7.179688 35.199219 12.800781 35.199219 C 18.417969 35.199219 23.160156 30.609375 23.160156 24.964844 C 23.160156 15.808594 14.808594 13.464844 13.175781 0.296875 C 13.125 -0.0976562 12.472656 -0.0976562 12.425781 0.296875 Z M 50.824219 0.296875 C 49.191406 13.464844 40.839844 15.808594 40.839844 24.964844 C 40.839844 30.609375 45.582031 35.199219 51.199219 35.199219 C 56.820312 35.199219 61.5625 30.609375 61.5625 24.964844 C 61.5625 15.808594 53.210938 13.464844 51.574219 0.296875 C 51.523438 -0.0976562 50.875 -0.0976562 50.824219 0.296875 Z M 50.824219 0.296875 "/>
</g>
</svg>